<?xml version="1.0" encoding="iso-8859-1"?>
<!-- Generator: Adobe Illustrator 19.0.0, SVG Export Plug-In . SVG Version: 6.00 Build 0)  -->
<svg version="1.1" id="Capa_1" xmlns="http://www.w3.org/2000/svg" xmlns:xlink="http://www.w3.org/1999/xlink" x="0px" y="0px"
	 viewBox="0 0 512 512" style="enable-background:new 0 0 512 512;" xml:space="preserve">
<rect x="63.611" y="215.922" style="fill:#EBC9A0;" width="384.773" height="216.432"/>
<rect x="63.611" y="215.922" style="fill:#D2AF8C;" width="384.773" height="40.08"/>
<path style="fill:#6482BE;" d="M175.839,336.167L175.839,336.167c-13.281,0-24.048,10.767-24.048,24.048v72.146h48.096v-72.146
	C199.888,346.934,189.12,336.167,175.839,336.167z"/>
<path style="fill:#506EAA;" d="M175.839,336.167c-13.281,0-24.048,10.767-24.048,24.048v16.032
	c0-13.281,10.767-24.048,24.048-24.048s24.048,10.767,24.048,24.048v-16.032C199.888,346.934,189.12,336.167,175.839,336.167z"/>
<rect x="199.892" y="215.922" style="fill:#F5DCB4;" width="32.06" height="216.432"/>
<rect x="199.892" y="223.942" style="fill:#EBC9A0;" width="32.06" height="24.05"/>
<rect x="280.052" y="215.922" style="fill:#F5DCB4;" width="32.06" height="216.432"/>
<rect x="280.052" y="223.942" style="fill:#EBC9A0;" width="32.06" height="24.05"/>
<rect x="360.213" y="215.922" style="fill:#F5DCB4;" width="32.06" height="216.432"/>
<rect x="360.213" y="223.942" style="fill:#EBC9A0;" width="32.06" height="24.05"/>
<rect x="440.373" y="215.922" style="fill:#F5DCB4;" width="32.06" height="216.432"/>
<rect x="440.373" y="223.942" style="fill:#EBC9A0;" width="32.06" height="24.05"/>
<rect x="119.721" y="215.922" style="fill:#F5DCB4;" width="32.06" height="216.432"/>
<rect x="119.721" y="223.942" style="fill:#EBC9A0;" width="32.06" height="24.05"/>
<rect x="39.565" y="215.922" style="fill:#F5DCB4;" width="32.06" height="216.432"/>
<rect x="39.565" y="223.942" style="fill:#EBC9A0;" width="32.06" height="24.05"/>
<rect x="23.533" y="191.872" style="fill:#FAEBC8;" width="464.934" height="32.06"/>
<polygon style="fill:#F5DCB4;" points="488.468,191.877 23.533,191.877 256,71.636 "/>
<rect x="23.533" y="432.364" style="fill:#FAEBC8;" width="464.934" height="32.06"/>
<polygon style="fill:#EBC9A0;" points="93.308,191.877 256,107.727 418.692,191.877 472.97,191.877 256,79.652 39.03,191.877 "/>
<path style="fill:#E8F7FF;" d="M488.456,199.884c-2.482,0-4.998-0.571-7.355-1.793L256,81.662L30.899,198.091
	c-7.852,4.078-17.535,1.002-21.606-6.873c-4.067-7.867-0.99-17.535,6.873-21.606L248.634,49.37c4.619-2.395,10.114-2.395,14.733,0
	l232.467,120.242c7.863,4.071,10.94,13.738,6.873,21.606C499.858,196.729,494.257,199.884,488.456,199.884z"/>
<path style="fill:#506EAA;" d="M175.839,336.167c-13.281,0-24.048,10.767-24.048,24.048v24.048
	c0-13.281,10.767-24.048,24.048-24.048s24.048,10.767,24.048,24.048v-24.048C199.888,346.934,189.12,336.167,175.839,336.167z"/>
<path style="fill:#6482BE;" d="M256,336.167L256,336.167c-13.281,0-24.048,10.767-24.048,24.048v72.146h48.096v-72.146
	C280.048,346.934,269.281,336.167,256,336.167z"/>
<path style="fill:#506EAA;" d="M256,336.167c-13.281,0-24.048,10.767-24.048,24.048v24.048c0-13.281,10.767-24.048,24.048-24.048
	s24.048,10.767,24.048,24.048v-24.048C280.048,346.934,269.282,336.167,256,336.167z"/>
<path style="fill:#6482BE;" d="M336.162,336.167L336.162,336.167c-13.281,0-24.048,10.767-24.048,24.048v72.146h48.096v-72.146
	C360.21,346.934,349.443,336.167,336.162,336.167z"/>
<path style="fill:#506EAA;" d="M336.162,336.167c-13.281,0-24.048,10.767-24.048,24.048v24.048
	c0-13.281,10.767-24.048,24.048-24.048c13.281,0,24.048,10.767,24.048,24.048v-24.048
	C360.21,346.934,349.443,336.167,336.162,336.167z"/>
<path style="fill:#6482BE;" d="M416.322,336.167L416.322,336.167c-13.281,0-24.048,10.767-24.048,24.048v72.146h48.096v-72.146
	C440.37,346.934,429.604,336.167,416.322,336.167z"/>
<path style="fill:#506EAA;" d="M416.322,336.167c-13.281,0-24.048,10.767-24.048,24.048v24.048
	c0-13.281,10.767-24.048,24.048-24.048c13.281,0,24.048,10.767,24.048,24.048v-24.048
	C440.37,346.934,429.604,336.167,416.322,336.167z"/>
<path style="fill:#6482BE;" d="M95.678,336.167L95.678,336.167c-13.281,0-24.048,10.767-24.048,24.048v72.146h48.096v-72.146
	C119.726,346.934,108.959,336.167,95.678,336.167z"/>
<path style="fill:#506EAA;" d="M95.678,336.167c-13.281,0-24.048,10.767-24.048,24.048v24.048c0-13.281,10.767-24.048,24.048-24.048
	s24.048,10.767,24.048,24.048v-24.048C119.726,346.934,108.959,336.167,95.678,336.167z"/>
<path d="M504.5,456.925h-8.532v-24.563c0-4.143-3.357-7.5-7.5-7.5h-8.532V231.441h8.532c4.143,0,7.5-3.357,7.5-7.5v-17.788
	c5.703-1.909,10.539-5.955,13.401-11.493c5.956-11.522,1.431-25.747-10.09-31.711L266.819,42.713
	c-6.775-3.515-14.865-3.515-21.631-0.004L12.719,162.952C1.2,168.914-3.325,183.139,2.63,194.661
	c2.828,5.471,7.582,9.527,13.402,11.484v17.796c0,4.143,3.357,7.5,7.5,7.5h8.533v193.42h-8.533c-4.143,0-7.5,3.357-7.5,7.5v24.563
	H7.5c-4.143,0-7.5,3.357-7.5,7.5s3.357,7.5,7.5,7.5h497c4.143,0,7.5-3.357,7.5-7.5S508.643,456.925,504.5,456.925z M464.936,424.861
	h-17.063v-193.42h17.063V424.861z M399.774,424.861v-64.665c0.011-9.116,7.429-16.53,16.548-16.53
	c9.125,0,16.548,7.424,16.548,16.549c0,0.007,0.001,0.013,0.001,0.019v64.626L399.774,424.861L399.774,424.861z M367.71,424.861
	v-193.42h17.064v128.736c0,0.013-0.001,0.026-0.001,0.039c0,0.007,0.001,0.013,0.001,0.019v64.626L367.71,424.861L367.71,424.861z
	 M319.613,424.861v-64.665c0.011-9.116,7.428-16.53,16.547-16.53c9.125,0,16.549,7.424,16.549,16.549v64.646H319.613z
	 M287.549,424.861v-193.42h17.064v24.545c0,0.007-0.001,0.013-0.001,0.019c0,0.006,0.001,0.013,0.001,0.019v104.152
	c0,0.013-0.001,0.026-0.001,0.039c0,0.007,0.001,0.013,0.001,0.019v64.626L287.549,424.861L287.549,424.861z M239.452,424.861
	v-64.646c0-9.125,7.423-16.549,16.548-16.549s16.548,7.424,16.548,16.549c0,0.007,0.001,0.013,0.001,0.019v64.626L239.452,424.861
	L239.452,424.861z M207.388,424.861v-193.42h17.064v193.42H207.388z M159.291,424.861v-64.665c0.011-9.116,7.429-16.53,16.548-16.53
	c9.125,0,16.548,7.424,16.548,16.549v64.646H159.291z M127.227,424.861v-193.42h17.064v128.736c0,0.013-0.001,0.026-0.001,0.039
	c0,0.007,0.001,0.013,0.001,0.019v64.626L127.227,424.861L127.227,424.861z M112.227,231.441v17.064H79.13v-17.064H112.227z
	 M79.13,263.506h33.097v69.864c-4.814-2.979-10.483-4.703-16.549-4.703c-6.065,0-11.734,1.724-16.548,4.703V263.506z
	 M159.291,263.506h33.096v69.864c-4.814-2.979-10.483-4.703-16.548-4.703s-11.734,1.724-16.548,4.703L159.291,263.506
	L159.291,263.506z M192.388,248.506h-33.096v-17.064h33.096L192.388,248.506L192.388,248.506z M239.452,263.506h33.097v69.865
	c-4.814-2.979-10.483-4.704-16.549-4.704c-6.065,0-11.733,1.724-16.548,4.703V263.506z M272.549,248.506h-33.097v-17.064h33.097
	V248.506z M319.613,263.506h33.096v69.864c-4.814-2.979-10.483-4.703-16.549-4.703c-6.065,0-11.733,1.724-16.547,4.703V263.506z
	 M352.71,248.506h-33.096v-17.064h33.096V248.506z M399.774,263.506h33.097v69.865c-4.814-2.979-10.483-4.704-16.549-4.704
	c-6.065,0-11.733,1.724-16.548,4.703L399.774,263.506L399.774,263.506z M432.871,248.506h-33.097v-17.064h33.097L432.871,248.506
	L432.871,248.506z M19.611,176.273L252.087,56.027c1.225-0.635,2.567-0.952,3.911-0.952c1.346,0,2.692,0.318,3.923,0.957
	l232.465,120.24c4.178,2.163,5.819,7.322,3.659,11.5c-1.471,2.845-4.379,4.611-7.589,4.611c-1.372,0-2.685-0.32-3.909-0.955
	L259.445,74.999c-2.16-1.117-4.73-1.117-6.891,0L27.44,191.435c-2.013,1.046-4.316,1.244-6.485,0.556
	c-2.175-0.69-3.95-2.188-5-4.217C13.795,183.595,15.437,178.435,19.611,176.273z M31.032,206.155
	c1.127-0.383,2.236-0.844,3.312-1.402l10.394-5.376h315.475c4.143,0,7.5-3.357,7.5-7.5s-3.357-7.5-7.5-7.5H73.739L256,90.105
	l182.261,94.272h-45.989c-4.143,0-7.5,3.357-7.5,7.5s3.357,7.5,7.5,7.5h74.991l10.386,5.372c1.067,0.553,2.18,1.013,3.319,1.396
	v10.296H31.032V206.155z M47.065,231.441h17.063v193.42H47.065V231.441z M31.032,439.861h56.628c4.143,0,7.5-3.357,7.5-7.5
	s-3.357-7.5-7.5-7.5H79.13v-64.646c0-9.125,7.423-16.549,16.548-16.549s16.549,7.424,16.549,16.549v72.126
	c0,0.007-0.001,0.013-0.001,0.019c0,4.143,3.357,7.5,7.5,7.5h361.242v17.063H31.032V439.861z"/>
<path d="M288.065,152.313h-64.13c-4.143,0-7.5,3.357-7.5,7.5c0,4.143,3.357,7.5,7.5,7.5h64.13c4.143,0,7.5-3.357,7.5-7.5
	C295.565,155.67,292.207,152.313,288.065,152.313z"/>
<path d="M247.984,135.248h16.031c4.143,0,7.5-3.357,7.5-7.5s-3.357-7.5-7.5-7.5h-16.031c-4.143,0-7.5,3.357-7.5,7.5
	C240.484,131.891,243.842,135.248,247.984,135.248z"/>
<g>
</g>
<g>
</g>
<g>
</g>
<g>
</g>
<g>
</g>
<g>
</g>
<g>
</g>
<g>
</g>
<g>
</g>
<g>
</g>
<g>
</g>
<g>
</g>
<g>
</g>
<g>
</g>
<g>
</g>
</svg>
